<svg height="682.667" viewBox="0 0 512 512" width="682.667" xmlns="http://www.w3.org/2000/svg"><path d="m253.3 2.1c-5.3 1-9.1 3-12.5 6.6-4.6 4.8-5.8 10-5.8 25.3 0 14.6 1.1 19.3 5.8 24.7 5.2 6 15.9 8.1 23.7 4.8 5-2 8.1-4.9 10.8-10 1.9-3.6 2.1-5.6 2.1-20 0-14.5-.2-16.4-2.2-20.2-4.1-7.8-13.6-12.7-21.9-11.2zm-170.8 70.2c-5 2.5-6.3 3.7-10 9.2-2.6 4-2.7 14.6-.1 19.4 2.2 4.1 20.4 22.4 24.3 24.4 4.2 2.2 11.1 2.6 16.4 1.1 5.7-1.7 12.2-8.4 13.6-14.2 1.2-4.7.7-11.6-1.2-15.2-2-3.9-20.6-22.5-24.5-24.5-5.6-2.9-12.8-3-18.5-.2zm333.5-1.4c-5.5 1.8-8.9 4.3-18.1 13.8-6.8 6.9-10.1 11.2-11.4 14.5-3.7 10 .8 21.1 10.9 26.4 4 2.2 13.3 2.2 17.8 0 4.8-2.3 23.1-20.7 25.4-25.4 4.5-9.6.6-21.9-8.7-27.1-4.3-2.5-11.9-3.5-15.9-2.2zm-164.3 15.7c-.1.1-4.6.5-10 .8-5.4.4-10.4.9-11 1.1-.7.2-2.9.6-4.9.9-19 2.8-44.5 13.1-63.3 25.7-29.3 19.6-51.6 47.1-64.4 79.6-2.6 6.7-7.7 24.7-8.6 30.3-.4 2.5-.9 5.2-1 6-2.3 12.7-2.3 39.8.1 51.4.2 1.2.7 3.7 1 5.6 1.6 10.4 6.6 26 12.2 38.5 13 28.8 34.3 53.6 61.6 71.9 7.2 4.8 28.6 16 28.6 14.9 0-.3.6-.1 1.3.4 3.5 2.9 27.1 9.2 41.2 11.1 7 .9 34.5.9 43.7-.1 17.7-1.9 42.1-9.8 59.4-19.2 7.5-4.1 24.2-15.5 28.4-19.4 21.1-19.5 33-34.8 43.1-55.8 5.2-10.6 12.1-30.5 13.4-38.3.4-2.5.9-5.4 1.1-6.5 1.9-9.3 2.7-40.3 1.2-51-7.4-55.8-41.9-104.2-92.5-129.9-8.5-4.4-31.3-13.1-31.3-12.1 0 .2-1.2 0-2.6-.5-3.3-1.3-17.8-3.8-25.8-4.6-6.3-.6-20.5-1.1-20.9-.8zm28.8 44.9c54.7 11.5 94 53.2 102.2 108.5 1.2 8.7.6 30.2-1.1 39-5.4 26.6-16.4 47.7-34.6 66-10.4 10.5-11.3 11.2-20.8 17.6-15 10-34.9 17.5-53.7 20.1-8.5 1.2-30.1.5-38.9-1.2-54.1-10.4-95-52.7-103-106.5-1.3-9.2-1.5-31.1-.2-37.5.4-1.7 1.1-5.3 1.6-8 2.7-13.3 10.6-32.2 18.1-43.2 20.4-30 49.9-49.2 85.2-55.3 12.6-2.2 33.5-2 45.2.5zm-264 104.5c-1.7.5-4.9 2.5-7.2 4.5-11.1 9.5-9.2 27.3 3.7 34.5 4.3 2.3 5.3 2.4 20.5 2.4 17 0 19.6-.6 25.3-5.8 8.3-7.5 8.5-22.4.5-30.2-5.6-5.3-9.5-6.2-25.3-6.2-8-.1-15.9.4-17.5.8zm445.2.4c-8.5 3.1-13.4 9.5-14.1 18.3-.8 9.3 5.2 18.7 13.7 21.5 6.3 2.2 33.1 1.8 37.4-.5 7.5-4 11.8-10.5 12.2-18.7.4-9.1-6.1-18.2-14.8-20.9-5.4-1.6-29.6-1.4-34.4.3zm-363.7 150.6c-6.2 2.9-22.6 19.2-25.5 25.4-5.6 11.7.4 25.4 12.7 29.1 4.7 1.4 8.7 1.2 14.4-.6 3.8-1.2 23.5-20.6 25.8-25.4 3.5-7.3 2.5-16.1-2.5-22.3-5.8-7.3-16.7-10-24.9-6.2zm301.2-.5c-9.4 4.1-14.9 12.5-13.9 21.4.8 7.2 2.7 10.1 14.3 21.6 9 9 11.2 10.7 15.7 12 6.1 1.7 10.5 1.3 15.9-1.5 7.6-4 11.9-11.8 11.2-20.7-.4-6.3-2.6-9.5-13.3-20.1-12.1-11.9-12-11.8-16.7-13.1-5.2-1.5-9.2-1.3-13.2.4zm-149.4 61.9c-4.3 1.5-7.1 3.5-9.8 6.9-4.4 5.5-5 8.7-4.7 24.9.2 13.3.5 15.8 2.3 19.3 4.5 8.6 14.8 13.2 24.2 10.6 5.8-1.5 9.9-4.7 13-10.1 2.6-4.4 2.7-5 2.7-20.5 0-14.9-.2-16.3-2.4-20.7-4.7-9.2-15.6-13.7-25.3-10.4z"/></svg>