<svg height="512pt" preserveAspectRatio="xMidYMid meet" viewBox="0 0 512 512" width="512pt" xmlns="http://www.w3.org/2000/svg"><path d="m2999 4347c-166-264-895-1417-1223-1936l-98-154 406 7c263 5 406 4 406-3 0-5-15-67-34-138-18-70-104-400-191-733-86-333-177-679-201-770-24-90-42-166-40-167 2-2 323 531 715 1183 391 653 710 1189 708 1190-1 1-164 10-362 19s-361 18-363 20 63 245 143 541c81 297 169 622 196 724 28 102 71 259 95 349 25 90 44 167 42 171-2 5-91-132-199-303z" transform="matrix(.1 0 0 -.1 0 512)"/></svg>