<svg xmlns="http://www.w3.org/2000/svg" viewBox="0 0 196.121 196.121"><path d="M94.923 137.827c-1.814-16.317-16.294-29.07-33.83-29.07-13.905 0-26.2 7.957-31.431 20.058h-.153C13.236 128.816 0 141.912 0 158.011c0 16.098 13.236 29.195 29.509 29.195.282 0 .564-.004.843-.01.094.007.192.01.286.01h63.164c.219 0 .435-.021.648-.063 13.062-.905 23.223-11.655 23.223-24.675-.001-12.892-10.016-23.512-22.75-24.641zm-1.309 42.223c-.087.007-.174.014-.261.024h-62.29a3.012 3.012 0 0 0-.582-.021c-12.71.487-23.349-9.555-23.349-22.042 0-12.167 10.039-22.063 22.377-22.063.749 0 1.487.035 2.218.104 1.619.188 3.19-.846 3.719-2.417 3.552-10.614 13.856-17.746 25.646-17.746 14.827 0 26.89 11.397 26.89 25.434 0 .975.4 1.908 1.104 2.58s1.643 1.041 2.629.982c.317-.014.637-.024.961-.024 9.851 0 17.864 7.898 17.864 17.606 0 9.378-7.434 17.102-16.926 17.583zM101.651 87.3c.219.042.439.063.665.063h63.168c.094 0 .191-.004.286-.01.278.007.561.01.843.01 16.273 0 29.508-13.097 29.508-29.195 0-16.099-13.236-29.195-29.508-29.195h-.153c-5.23-12.101-17.526-20.058-31.43-20.058-17.526 0-32.002 12.741-33.826 29.07-12.735 1.128-22.753 11.749-22.753 24.64-.003 13.016 10.148 23.764 23.2 24.675zm1.793-42.281c.324 0 .644.01.961.024a3.58 3.58 0 0 0 2.629-.996 3.6 3.6 0 0 0 1.104-2.594c0-14.009 12.062-25.406 26.89-25.406 11.791 0 22.095 7.132 25.647 17.746.526 1.578 2.117 2.556 3.719 2.417a23.19 23.19 0 0 1 2.218-.104c12.338 0 22.377 9.897 22.377 22.063-.004 12.487-10.69 22.596-23.349 22.042-.052-.004-.108-.004-.16-.004-.139 0-.275.007-.411.024h-62.298c-.087-.01-.178-.017-.265-.024-9.493-.481-16.927-8.204-16.927-17.582.001-9.708 8.014-17.606 17.865-17.606zM63.151 86.464l-35.007 4.649a3.564 3.564 0 0 0-3.064 4.004 3.565 3.565 0 0 0 4.005 3.065L68.109 93a3.567 3.567 0 0 0 2.977-4.45l-10.05-37.8a3.572 3.572 0 0 0-4.363-2.532 3.57 3.57 0 0 0-2.532 4.363l9.01 33.883z"/><path d="M3.563 83.951c.157 0 .313-.01.474-.031l39.029-5.181a3.567 3.567 0 0 0 2.977-4.45l-10.05-37.8c-.505-1.905-2.459-3.023-4.363-2.532a3.57 3.57 0 0 0-2.532 4.363l9.009 33.882L3.096 76.85a3.564 3.564 0 0 0-3.064 4.004 3.565 3.565 0 0 0 3.531 3.097zM125.922 116.941l35.011-4.649a3.564 3.564 0 0 0 3.064-4.004 3.563 3.563 0 0 0-4.004-3.064l-39.029 5.181a3.567 3.567 0 0 0-2.977 4.45l10.05 37.796a3.565 3.565 0 0 0 4.363 2.532 3.57 3.57 0 0 0 2.532-4.363l-9.01-33.879z"/><path d="M184.952 126.618l-39.029 5.181a3.567 3.567 0 0 0-2.977 4.45l10.05 37.796a3.565 3.565 0 0 0 4.363 2.532 3.57 3.57 0 0 0 2.532-4.363l-9.009-33.879 35.011-4.649a3.564 3.564 0 0 0 3.064-4.004c-.258-1.952-2.051-3.314-4.005-3.064z"/></svg>