<svg xmlns="http://www.w3.org/2000/svg" viewBox="0 0 512 512"><path d="M499.15 249.202l-32.971-21.98a8.166 8.166 0 0 0-7.148-.942l-61.559 20.805-17.985-10.26a8.17 8.17 0 0 0-11.145 3.048 8.169 8.169 0 0 0 3.048 11.145l8.733 4.982-54.215 30.928-33.184-19.159v-23.537l33.185-19.16 17.096 9.753a8.17 8.17 0 1 0 8.095-14.193l-8.803-5.022 43.105-24.886 53.03 14.21a8.17 8.17 0 0 0 10.006-5.778 8.17 8.17 0 0 0-5.777-10.007l-37.246-9.98 27.935-16.128 26.758 7.17a8.17 8.17 0 0 0 10.006-5.778 8.17 8.17 0 0 0-5.777-10.007l-10.974-2.94 21.347-12.325a8.17 8.17 0 0 0 2.99-11.16 8.168 8.168 0 0 0-11.16-2.99l-21.348 12.325 2.94-10.973a8.17 8.17 0 0 0-5.777-10.007 8.169 8.169 0 0 0-10.007 5.777l-7.17 26.757-27.93 16.127 9.98-37.245a8.17 8.17 0 0 0-5.777-10.007 8.169 8.169 0 0 0-10.007 5.777l-14.208 53.029-43.107 24.888.329-63.521 48.797-42.909a8.165 8.165 0 0 0 2.758-6.661l-2.55-39.544a8.167 8.167 0 0 0-11.774-6.797l-35.521 17.564a8.167 8.167 0 0 0-4.389 5.719l-12.761 63.715-54.846 32.046v-49.774l38.822-38.82a8.171 8.171 0 0 0-11.555-11.554L264.17 88.186V55.93l19.588-19.588a8.17 8.17 0 1 0-11.555-11.555l-8.033 8.033V8.17A8.17 8.17 0 0 0 256 0a8.17 8.17 0 0 0-8.17 8.17v24.65l-8.033-8.033a8.17 8.17 0 0 0-11.555 0 8.17 8.17 0 0 0 0 11.555L247.83 55.93v32.256l-27.266-27.267c-3.192-3.191-8.364-3.191-11.555 0s-3.191 8.364 0 11.554l38.822 38.82v49.774l-54.846-32.045-12.762-63.715a8.167 8.167 0 0 0-4.389-5.719l-35.521-17.564a8.171 8.171 0 0 0-11.774 6.797l-2.55 39.544a8.17 8.17 0 0 0 2.758 6.661l48.797 42.909.329 63.521-43.107-24.888-14.209-53.029a8.168 8.168 0 0 0-10.007-5.777 8.17 8.17 0 0 0-5.777 10.007l9.98 37.245-27.935-16.128-7.17-26.757a8.168 8.168 0 0 0-10.007-5.777 8.17 8.17 0 0 0-5.777 10.007l2.94 10.973-21.347-12.322a8.171 8.171 0 0 0-8.171 14.151l21.347 12.325-10.974 2.94a8.173 8.173 0 1 0 4.229 15.785l26.758-7.17 27.935 16.128-37.246 9.98a8.173 8.173 0 1 0 4.229 15.785l53.03-14.21 43.105 24.886-55.175 31.476-61.56-20.806a8.167 8.167 0 0 0-7.148.942l-32.965 21.98a8.168 8.168 0 0 0 0 13.596l32.971 21.98a8.166 8.166 0 0 0 7.148.943l61.56-20.806 55.175 31.476-43.105 24.886-53.03-14.21a8.17 8.17 0 0 0-10.007 5.778 8.17 8.17 0 0 0 5.777 10.007l37.246 9.98L78.65 348.96l-26.758-7.17a8.17 8.17 0 1 0-4.23 15.784l10.974 2.94-21.347 12.325a8.17 8.17 0 1 0 8.171 14.151l21.348-12.325-2.94 10.973a8.17 8.17 0 1 0 15.783 4.229l7.17-26.757 27.935-16.128-9.98 37.246a8.17 8.17 0 1 0 15.783 4.229l14.209-53.029 43.107-24.888-.329 63.521-48.797 42.909a8.165 8.165 0 0 0-2.758 6.661l2.55 39.544a8.17 8.17 0 0 0 11.774 6.799l35.521-17.563a8.167 8.167 0 0 0 4.389-5.719l12.761-63.715 54.846-32.045v49.773l-38.822 38.82a8.17 8.17 0 0 0 0 11.554 8.17 8.17 0 0 0 11.555 0l27.266-27.266v32.256l-19.588 19.588a8.17 8.17 0 0 0 0 11.554 8.17 8.17 0 0 0 11.555 0l8.033-8.033v24.651a8.17 8.17 0 0 0 8.17 8.17 8.17 8.17 0 0 0 8.17-8.17v-24.65l8.033 8.033a8.15 8.15 0 0 0 5.778 2.393 8.17 8.17 0 0 0 5.778-13.947l-19.59-19.588v-32.256l27.266 27.266a8.147 8.147 0 0 0 5.778 2.393 8.145 8.145 0 0 0 5.778-2.393 8.17 8.17 0 0 0 0-11.554l-38.822-38.82v-49.773l54.846 32.045 12.761 63.715a8.167 8.167 0 0 0 4.389 5.719l35.521 17.564a8.174 8.174 0 0 0 7.706-.249 8.17 8.17 0 0 0 4.068-6.55l2.55-39.544a8.172 8.172 0 0 0-2.758-6.661l-48.797-42.909-.329-63.521 43.107 24.888 14.209 53.029a8.173 8.173 0 0 0 10.006 5.778 8.17 8.17 0 0 0 5.777-10.007l-9.98-37.246 27.934 16.128 7.17 26.757a8.173 8.173 0 0 0 10.006 5.778 8.17 8.17 0 0 0 5.777-10.007l-2.94-10.973 21.348 12.325a8.168 8.168 0 0 0 11.161-2.99 8.171 8.171 0 0 0-2.99-11.161l-21.347-12.325 10.974-2.94a8.17 8.17 0 1 0-4.23-15.784l-26.758 7.17-27.935-16.128 37.246-9.98a8.17 8.17 0 0 0 5.777-10.007c-1.167-4.359-5.647-6.944-10.007-5.778l-53.03 14.21-43.105-24.886 55.175-31.476 61.56 20.806a8.16 8.16 0 0 0 7.147-.943l32.971-21.98a8.171 8.171 0 0 0 0-13.598zM347.011 72.457l20.934-10.351 1.503 23.305-30.383 26.717 7.946-39.671zM142.552 85.411l1.503-23.305 20.934 10.351 7.946 39.671-30.383-26.717zM51.541 268.955L32.111 256l19.431-12.955L89.87 256l-38.329 12.955zm113.448 170.588l-20.934 10.351-1.503-23.306 30.383-26.717-7.946 39.672zm99.181-259.55l53.892-31.487-.323 62.415-33.185 19.16-20.383-11.768v-38.32zm-16.34 0v38.319l-20.383 11.768-33.185-19.16-.324-62.415 53.892 31.488zm-61.738 106.935L131.877 256l54.215-30.928 33.184 19.159v23.537l-33.184 19.16zm7.846 76.566l.324-62.415 33.185-19.16 20.382 11.768v38.319h.001l-53.892 31.488zM256 279.537l-20.383-11.768v-23.537L256 232.463l20.383 11.768v23.537L256 279.537zm8.17 52.47v-38.319l20.382-11.768 33.185 19.16.323 62.415-53.89-31.488zm105.278 94.582l-1.503 23.305-20.934-10.351-7.946-39.67 30.383 26.716zm91.011-157.634L422.13 256l38.329-12.955L479.889 256l-19.43 12.955z"/></svg>