<?xml version="1.0" encoding="iso-8859-1"?>
<!-- Generator: Adobe Illustrator 19.0.0, SVG Export Plug-In . SVG Version: 6.00 Build 0)  -->
<svg version="1.1" id="Layer_1" xmlns="http://www.w3.org/2000/svg" xmlns:xlink="http://www.w3.org/1999/xlink" x="0px" y="0px"
	 viewBox="0 0 196.121 196.121" style="enable-background:new 0 0 196.121 196.121;" xml:space="preserve">
<g>
	<g>
		<g>
			<path d="M94.923,137.827c-1.814-16.317-16.294-29.07-33.83-29.07c-13.905,0-26.2,7.957-31.431,20.058c-0.052,0-0.101,0-0.153,0
				C13.236,128.816,0,141.912,0,158.011c0,16.098,13.236,29.195,29.509,29.195c0.282,0,0.564-0.004,0.843-0.01
				c0.094,0.007,0.192,0.01,0.286,0.01h63.164c0.219,0,0.435-0.021,0.648-0.063c13.062-0.905,23.223-11.655,23.223-24.675
				C117.672,149.576,107.657,138.956,94.923,137.827z M93.614,180.05c-0.087,0.007-0.174,0.014-0.261,0.024h-62.29
				c-0.195-0.024-0.397-0.035-0.582-0.021c-12.71,0.487-23.349-9.555-23.349-22.042c0-12.167,10.039-22.063,22.377-22.063
				c0.749,0,1.487,0.035,2.218,0.104c1.619,0.188,3.19-0.846,3.719-2.417c3.552-10.614,13.856-17.746,25.646-17.746
				c14.827,0,26.89,11.397,26.89,25.434c0,0.975,0.4,1.908,1.104,2.58s1.643,1.041,2.629,0.982c0.317-0.014,0.637-0.024,0.961-0.024
				c9.851,0,17.864,7.898,17.864,17.606C110.54,171.845,103.106,179.569,93.614,180.05z"/>
			<path d="M101.651,87.3c0.219,0.042,0.439,0.063,0.665,0.063h63.168c0.094,0,0.191-0.004,0.286-0.01
				c0.278,0.007,0.561,0.01,0.843,0.01c16.273,0,29.508-13.097,29.508-29.195c0-16.099-13.236-29.195-29.508-29.195
				c-0.052,0-0.101,0-0.153,0c-5.23-12.101-17.526-20.058-31.43-20.058c-17.526,0-32.002,12.741-33.826,29.07
				c-12.735,1.128-22.753,11.749-22.753,24.64C78.448,75.641,88.599,86.389,101.651,87.3z M103.444,45.019
				c0.324,0,0.644,0.01,0.961,0.024c0.968,0.049,1.922-0.324,2.629-0.996c0.704-0.672,1.104-1.619,1.104-2.594
				c0-14.009,12.062-25.406,26.89-25.406c11.791,0,22.095,7.132,25.647,17.746c0.526,1.578,2.117,2.556,3.719,2.417
				c0.728-0.07,1.469-0.104,2.218-0.104c12.338,0,22.377,9.897,22.377,22.063c-0.004,12.487-10.69,22.596-23.349,22.042
				c-0.052-0.004-0.108-0.004-0.16-0.004c-0.139,0-0.275,0.007-0.411,0.024h-62.298c-0.087-0.01-0.178-0.017-0.265-0.024
				c-9.493-0.481-16.927-8.204-16.927-17.582C85.58,52.917,93.593,45.019,103.444,45.019z"/>
			<path d="M63.151,86.464l-35.007,4.649c-1.95,0.258-3.325,2.051-3.064,4.004c0.237,1.793,1.769,3.096,3.531,3.096
				c0.157,0,0.313-0.01,0.474-0.031l39.024-5.182c1.017-0.136,1.926-0.7,2.493-1.553c0.571-0.85,0.745-1.908,0.484-2.897
				l-10.05-37.8c-0.508-1.905-2.462-3.033-4.363-2.532c-1.905,0.508-3.037,2.462-2.532,4.363L63.151,86.464z"/>
			<path d="M3.563,83.951c0.157,0,0.313-0.01,0.474-0.031l39.029-5.181c1.017-0.136,1.926-0.7,2.493-1.553
				c0.571-0.85,0.745-1.908,0.484-2.897l-10.05-37.8c-0.505-1.905-2.459-3.023-4.363-2.532c-1.905,0.508-3.037,2.462-2.532,4.363
				l9.009,33.882L3.096,76.85c-1.95,0.258-3.325,2.051-3.064,4.004C0.269,82.647,1.801,83.951,3.563,83.951z"/>
			<path d="M125.922,116.941l35.011-4.649c1.95-0.258,3.325-2.051,3.064-4.004c-0.258-1.954-2.055-3.325-4.004-3.064l-39.029,5.181
				c-1.017,0.136-1.926,0.7-2.493,1.553c-0.571,0.85-0.745,1.908-0.484,2.897l10.05,37.796c0.425,1.598,1.866,2.65,3.444,2.65
				c0.303,0,0.613-0.038,0.919-0.118c1.905-0.508,3.037-2.462,2.532-4.363L125.922,116.941z"/>
			<path d="M184.952,126.618l-39.029,5.181c-1.017,0.136-1.926,0.7-2.493,1.553c-0.571,0.85-0.745,1.908-0.484,2.897l10.05,37.796
				c0.425,1.598,1.866,2.65,3.444,2.65c0.303,0,0.613-0.038,0.919-0.118c1.905-0.508,3.037-2.462,2.532-4.363l-9.009-33.879
				l35.011-4.649c1.95-0.258,3.325-2.051,3.064-4.004C188.699,127.73,186.906,126.368,184.952,126.618z"/>
		</g>
	</g>
</g>
<g>
</g>
<g>
</g>
<g>
</g>
<g>
</g>
<g>
</g>
<g>
</g>
<g>
</g>
<g>
</g>
<g>
</g>
<g>
</g>
<g>
</g>
<g>
</g>
<g>
</g>
<g>
</g>
<g>
</g>
</svg>
