<?xml version="1.0" encoding="iso-8859-1"?>
<!-- Generator: Adobe Illustrator 19.0.0, SVG Export Plug-In . SVG Version: 6.00 Build 0)  -->
<svg version="1.1" id="Capa_1" xmlns="http://www.w3.org/2000/svg" xmlns:xlink="http://www.w3.org/1999/xlink" x="0px" y="0px"
	 viewBox="0 0 512 512" style="enable-background:new 0 0 512 512;" xml:space="preserve">
<g>
	<g>
		<path d="M499.15,249.202l-32.971-21.98c-2.107-1.405-4.745-1.754-7.148-0.942l-61.559,20.805l-17.985-10.26
			c-3.921-2.236-8.91-0.871-11.145,3.048c-2.237,3.919-0.872,8.909,3.048,11.145l8.733,4.982l-54.215,30.928l-33.184-19.159v-23.537
			l33.185-19.16l17.096,9.753c3.918,2.235,8.909,0.872,11.144-3.048c2.235-3.919,0.871-8.909-3.049-11.145l-8.803-5.022
			l43.105-24.886l53.03,14.21c0.708,0.19,1.421,0.28,2.12,0.28c3.608,0,6.909-2.407,7.886-6.058
			c1.168-4.359-1.418-8.838-5.777-10.007l-37.246-9.98l27.935-16.128l26.758,7.17c0.708,0.19,1.421,0.28,2.12,0.28
			c3.608,0,6.909-2.407,7.886-6.058c1.168-4.359-1.418-8.839-5.777-10.007l-10.974-2.94l21.347-12.325
			c3.908-2.256,5.246-7.253,2.99-11.16c-2.255-3.909-7.254-5.246-11.16-2.99l-21.348,12.325l2.94-10.973
			c1.168-4.359-1.418-8.839-5.777-10.007c-4.36-1.169-8.839,1.418-10.007,5.777l-7.17,26.757l-27.93,16.127l9.98-37.245
			c1.168-4.359-1.418-8.839-5.777-10.007c-4.36-1.169-8.839,1.418-10.007,5.777l-14.208,53.029l-43.107,24.888l0.329-63.521
			l48.797-42.909c1.903-1.673,2.922-4.133,2.758-6.661l-2.55-39.544c-0.175-2.726-1.703-5.184-4.068-6.549
			c-2.368-1.367-5.257-1.459-7.706-0.248l-35.521,17.564c-2.271,1.123-3.892,3.235-4.389,5.719l-12.761,63.715l-54.846,32.046
			v-49.774l38.822-38.82c3.191-3.191,3.191-8.363,0-11.554c-3.191-3.19-8.363-3.191-11.555,0L264.17,88.186V55.93l19.588-19.588
			c3.191-3.191,3.191-8.364,0-11.555c-3.191-3.19-8.363-3.191-11.555,0l-8.033,8.033V8.17c0-4.512-3.657-8.17-8.17-8.17
			c-4.513,0-8.17,3.658-8.17,8.17v24.65l-8.033-8.033c-3.193-3.192-8.365-3.19-11.555,0c-3.191,3.191-3.191,8.364,0,11.555
			L247.83,55.93v32.256l-27.266-27.267c-3.192-3.191-8.364-3.191-11.555,0s-3.191,8.364,0,11.554l38.822,38.82v49.774
			l-54.846-32.045l-12.762-63.715c-0.497-2.484-2.118-4.596-4.389-5.719l-35.521-17.564c-2.448-1.21-5.34-1.118-7.706,0.248
			c-2.366,1.366-3.892,3.824-4.068,6.549l-2.55,39.544c-0.162,2.528,0.855,4.988,2.758,6.661l48.797,42.909l0.329,63.521
			l-43.107-24.888l-14.209-53.029c-1.167-4.359-5.647-6.946-10.007-5.777c-4.359,1.168-6.945,5.648-5.777,10.007l9.98,37.245
			l-27.935-16.128l-7.17-26.757c-1.167-4.359-5.647-6.946-10.007-5.777c-4.359,1.168-6.945,5.648-5.777,10.007l2.94,10.973
			L45.457,125.01c-3.911-2.257-8.907-0.917-11.161,2.99c-2.256,3.908-0.917,8.904,2.99,11.161l21.347,12.325l-10.974,2.94
			c-4.359,1.168-6.945,5.648-5.777,10.007c0.977,3.65,4.279,6.058,7.886,6.058c0.7,0,1.412-0.09,2.12-0.28l26.758-7.17
			l27.935,16.128l-37.246,9.98c-4.359,1.168-6.945,5.648-5.777,10.007c0.977,3.65,4.279,6.058,7.886,6.058
			c0.701,0,1.412-0.09,2.12-0.28l53.03-14.21l43.105,24.886l-55.175,31.476l-61.56-20.806c-2.401-0.812-5.04-0.463-7.148,0.942
			l-32.965,21.98c-2.273,1.515-3.638,4.065-3.638,6.798c0,2.732,1.365,5.283,3.638,6.798l32.971,21.98
			c1.358,0.906,2.938,1.373,4.533,1.373c0.879,0,1.761-0.142,2.615-0.43l61.56-20.806l55.175,31.476l-43.105,24.886l-53.03-14.21
			c-4.361-1.166-8.839,1.418-10.007,5.778c-1.168,4.359,1.418,8.838,5.777,10.007l37.246,9.98L78.65,348.96l-26.758-7.17
			c-4.36-1.165-8.839,1.418-10.007,5.777c-1.168,4.359,1.418,8.839,5.777,10.007l10.974,2.94l-21.347,12.325
			c-3.908,2.256-5.246,7.253-2.99,11.161c1.513,2.621,4.259,4.086,7.083,4.086c1.386,0,2.792-0.353,4.078-1.096l21.348-12.325
			l-2.94,10.973c-1.168,4.359,1.418,8.839,5.777,10.007c0.708,0.19,1.421,0.28,2.12,0.28c3.608,0,6.909-2.408,7.886-6.058
			l7.17-26.757l27.935-16.128l-9.98,37.246c-1.168,4.359,1.418,8.838,5.777,10.007c0.708,0.19,1.421,0.28,2.12,0.28
			c3.608,0,6.909-2.407,7.886-6.058l14.209-53.029l43.107-24.888l-0.329,63.521l-48.797,42.909
			c-1.903,1.673-2.922,4.133-2.758,6.661l2.55,39.544c0.175,2.726,1.703,5.184,4.068,6.55c1.261,0.728,2.672,1.095,4.085,1.095
			c1.239,0,2.477-0.281,3.621-0.846l35.521-17.563c2.271-1.123,3.892-3.235,4.389-5.719l12.761-63.715l54.846-32.045v49.773
			l-38.822,38.82c-3.191,3.191-3.191,8.364,0,11.554c3.192,3.191,8.364,3.192,11.555,0l27.266-27.266v32.256l-19.588,19.588
			c-3.191,3.191-3.191,8.364,0,11.554c3.192,3.191,8.364,3.191,11.555,0l8.033-8.033v24.651c0,4.512,3.657,8.17,8.17,8.17
			c4.513,0,8.17-3.658,8.17-8.17v-24.65l8.033,8.033c1.596,1.595,3.688,2.393,5.778,2.393c2.09,0,4.182-0.797,5.778-2.393
			c3.191-3.191,3.191-8.364,0-11.554L264.17,456.07v-32.256l27.266,27.266c1.596,1.595,3.686,2.393,5.778,2.393
			c2.091,0,4.182-0.797,5.778-2.393c3.191-3.191,3.191-8.364,0-11.554l-38.822-38.82v-49.773l54.846,32.045l12.761,63.715
			c0.497,2.484,2.118,4.596,4.389,5.719l35.521,17.564c1.144,0.565,2.384,0.846,3.621,0.846c1.413,0,2.825-0.366,4.085-1.095
			c2.366-1.366,3.892-3.824,4.068-6.55l2.55-39.544c0.162-2.527-0.855-4.988-2.758-6.661l-48.797-42.909l-0.329-63.521
			l43.107,24.888l14.209,53.029c0.977,3.65,4.279,6.058,7.886,6.058c0.7,0,1.412-0.09,2.12-0.28
			c4.359-1.168,6.945-5.648,5.777-10.007l-9.98-37.246l27.934,16.128l7.17,26.757c0.977,3.65,4.279,6.058,7.886,6.058
			c0.701,0,1.412-0.09,2.12-0.28c4.359-1.168,6.945-5.648,5.777-10.007l-2.94-10.973l21.348,12.325
			c1.288,0.743,2.692,1.096,4.078,1.096c2.824,0,5.57-1.466,7.083-4.086c2.256-3.908,0.917-8.904-2.99-11.161l-21.347-12.325
			l10.974-2.94c4.359-1.168,6.945-5.648,5.777-10.007c-1.168-4.359-5.648-6.941-10.007-5.777l-26.758,7.17l-27.935-16.128
			l37.246-9.98c4.359-1.168,6.945-5.648,5.777-10.007c-1.167-4.359-5.647-6.944-10.007-5.778l-53.03,14.21l-43.105-24.886
			l55.175-31.476l61.56,20.806c0.853,0.289,1.736,0.43,2.614,0.43c1.595,0,3.174-0.466,4.533-1.373l32.971-21.98
			c2.273-1.515,3.638-4.065,3.638-6.798C502.788,253.269,501.423,250.717,499.15,249.202z M347.011,72.457l20.934-10.351
			l1.503,23.305l-30.383,26.717L347.011,72.457z M142.552,85.411l1.503-23.305l20.934,10.351l7.946,39.671L142.552,85.411z
			 M51.541,268.955L32.111,256l19.431-12.955L89.87,256L51.541,268.955z M164.989,439.543l-20.934,10.351l-1.503-23.306
			l30.383-26.717L164.989,439.543z M264.17,179.993l53.892-31.487l-0.323,62.415l-33.185,19.16l-20.383-11.768V179.993z
			 M247.83,179.993v38.319l-20.383,11.768l-33.185-19.16l-0.324-62.415L247.83,179.993z M186.092,286.928L131.877,256l54.215-30.928
			l33.184,19.159v23.537L186.092,286.928z M193.938,363.494l0.324-62.415l33.185-19.16l20.382,11.768v38.319h0.001L193.938,363.494z
			 M256,279.537l-20.383-11.768v-23.537L256,232.463l20.383,11.768v23.537L256,279.537z M264.17,332.007v-38.319l20.382-11.768
			l33.185,19.16l0.323,62.415L264.17,332.007z M369.448,426.589l-1.503,23.305l-20.934-10.351l-7.946-39.67L369.448,426.589z
			 M460.459,268.955L422.13,256l38.329-12.955L479.889,256L460.459,268.955z"/>
	</g>
</g>
<g>
</g>
<g>
</g>
<g>
</g>
<g>
</g>
<g>
</g>
<g>
</g>
<g>
</g>
<g>
</g>
<g>
</g>
<g>
</g>
<g>
</g>
<g>
</g>
<g>
</g>
<g>
</g>
<g>
</g>
</svg>
