<svg height="512pt" viewBox="0 0 512 512" width="512pt" xmlns="http://www.w3.org/2000/svg"><path d="m502 492h-44v-13.28125c0-5.523438-4.476562-10-10-10s-10 4.476562-10 10v13.28125h-172v-13.28125c0-5.523438-4.476562-10-10-10s-10 4.476562-10 10v13.28125h-172v-13.28125c0-5.523438-4.476562-10-10-10s-10 4.476562-10 10v13.28125h-44c-5.523438 0-10 4.476562-10 10s4.476562 10 10 10h492c5.523438 0 10-4.476562 10-10s-4.476562-10-10-10zm0 0"/><path d="m118.089844 173.011719c30.515625 0 55.339844-24.824219 55.339844-55.335938s-24.824219-55.335937-55.339844-55.335937c-30.511719 0-55.335938 24.824218-55.335938 55.335937s24.824219 55.335938 55.335938 55.335938zm0-90.671875c19.484375 0 35.339844 15.851562 35.339844 35.335937 0 19.480469-15.855469 35.335938-35.339844 35.335938s-35.335938-15.855469-35.335938-35.335938c0-19.484375 15.851563-35.335937 35.335938-35.335937zm0 0"/><path d="m118.089844 45.671875c5.523437 0 10-4.476563 10-10v-25.671875c0-5.523438-4.476563-10-10-10-5.519532 0-10 4.476562-10 10v25.671875c0 5.523437 4.480468 10 10 10zm0 0"/><path d="m108.089844 202.371094v22.976562c0 5.523438 4.480468 10 10 10 5.523437 0 10-4.476562 10-10v-22.976562c0-5.523438-4.476563-10-10-10-5.519532 0-10 4.476562-10 10zm0 0"/><path d="m190.09375 117.675781c0 5.519531 4.480469 10 10 10h25.671875c5.523437 0 10-4.480469 10-10 0-5.523437-4.476563-10-10-10h-25.671875c-5.519531 0-10 4.476563-10 10zm0 0"/><path d="m10.417969 127.675781h22.976562c5.519531 0 10-4.480469 10-10 0-5.523437-4.480469-10-10-10h-22.976562c-5.523438 0-10 4.476563-10 10 0 5.519531 4.476562 10 10 10zm0 0"/><path d="m169.003906 168.589844c-3.902344 3.902344-3.902344 10.234375 0 14.140625l18.152344 18.152343c1.953125 1.953126 4.511719 2.929688 7.070312 2.929688 2.558594 0 5.121094-.976562 7.074219-2.929688 3.902344-3.90625 3.902344-10.238281 0-14.140624l-18.152343-18.152344c-3.90625-3.90625-10.238282-3.90625-14.144532 0zm0 0"/><path d="m51.128906 64.855469c1.953125 1.953125 4.511719 2.929687 7.070313 2.929687 2.5625 0 5.121093-.976562 7.074219-2.929687 3.902343-3.90625 3.902343-10.238281 0-14.140625l-16.246094-16.25c-3.90625-3.902344-10.238282-3.902344-14.144532 0-3.90625 3.90625-3.90625 10.238281 0 14.144531zm0 0"/><path d="m53.035156 168.589844-18.152344 18.152344c-3.90625 3.902343-3.90625 10.234374 0 14.140624 1.953126 1.953126 4.511719 2.929688 7.070313 2.929688s5.117187-.976562 7.070313-2.929688l18.152343-18.152343c3.90625-3.90625 3.90625-10.238281 0-14.140625-3.90625-3.90625-10.234375-3.90625-14.140625 0zm0 0"/><path d="m177.980469 67.785156c2.5625 0 5.121093-.976562 7.074219-2.929687l16.246093-16.246094c3.902344-3.90625 3.902344-10.238281 0-14.144531-3.90625-3.902344-10.238281-3.902344-14.144531 0l-16.246094 16.25c-3.90625 3.902344-3.90625 10.234375 0 14.140625 1.953125 1.953125 4.511719 2.929687 7.070313 2.929687zm0 0"/><path d="m10 249.269531c2.628906 0 5.210938-1.070312 7.070312-2.929687 1.859376-1.859375 2.929688-4.441406 2.929688-7.070313 0-2.628906-1.070312-5.210937-2.929688-7.070312-1.859374-1.859375-4.441406-2.929688-7.070312-2.929688s-5.210938 1.070313-7.070312 2.929688c-1.859376 1.859375-2.929688 4.441406-2.929688 7.070312 0 2.640625 1.070312 5.210938 2.929688 7.070313 1.859374 1.859375 4.441406 2.929687 7.070312 2.929687zm0 0"/><path d="m126.699219 428h-116.699219c-5.523438 0-10 4.476562-10 10s4.476562 10 10 10h140.128906v13.28125c0 5.523438 4.476563 10 10 10 5.519532 0 10-4.476562 10-10v-13.28125h172v13.28125c0 5.523438 4.476563 10 10 10 5.519532 0 10-4.476562 10-10v-13.28125h139.871094c5.523438 0 10-4.476562 10-10s-4.476562-10-10-10h-152.910156l64.851562-64.851562 8.671875 8.675781c2.503907 2.503906 6.144531 3.496093 9.570313 2.613281 3.429687-.886719 6.132812-3.515625 7.113281-6.917969l24.746094-85.984375c1.007812-3.5.035156-7.265625-2.539063-9.839844-2.570312-2.570312-6.339844-3.542968-9.835937-2.539062l-85.984375 24.75c-3.402344.980469-6.03125 3.683594-6.917969 7.109375-.882813 3.429687.109375 7.070313 2.613281 9.570313l9.476563 9.476562-44.992188 44.992188-47.980469-47.980469 10.226563-35.539063c1.007813-3.496094.035156-7.265625-2.539063-9.835937-2.574218-2.574219-6.339843-3.546875-9.835937-2.539063l-35.015625 10.078125-47.039062-47.039062c-3.90625-3.902344-10.238282-3.902344-14.144532 0-3.902344 3.90625-3.902344 10.238281 0 14.144531l39.21875 39.214844-23.304687 6.707031-31-31c-3.90625-3.90625-10.234375-3.90625-14.144531 0-3.902344 3.902344-3.902344 10.234375 0 14.140625l34.820312 34.820312c.109375.117188.203125.246094.316406.363282l9.480469 9.476562-44.992187 44.992188-104.574219-104.574219c-3.90625-3.90625-10.234375-3.90625-14.140625 0s-3.90625 10.238281 0 14.144531l111.640625 111.640625c1.875 1.875 4.417969 2.929688 7.070312 2.929688 2.652344 0 5.195313-1.054688 7.070313-2.929688l59.136718-59.132812c3.902344-3.90625 3.902344-10.238281 0-14.144531l-.0625-.0625c-.136718-.152344-.269531-.3125-.414062-.457032l-4.046875-4.046875 29.011719-8.347656c.023437-.007813.046875-.015625.070312-.019531l23.195313-6.675782-6.828125 23.71875c-.003906.019532-.011719.042969-.019532.066407l-8.207031 28.523437-3.757812-3.753906c-3.902344-3.90625-10.234375-3.902344-14.140625 0l-81.007813 81.007812-132.855469-132.855468c-3.90625-3.90625-10.234374-3.90625-14.140624 0-3.90625 3.90625-3.90625 10.234375 0 14.140625zm46.457031 0 64.738281-64.738281 64.738281 64.738281zm145.632812-41.730469c1.875 1.875 4.421876 2.929688 7.070313 2.929688 2.652344 0 5.195313-1.054688 7.074219-2.929688l59.132812-59.136719c3.90625-3.902343 3.90625-10.234374 0-14.140624l-4.558594-4.554688 52.3125-15.058594-15.054687 52.3125-3.753906-3.753906c-3.90625-3.90625-10.238281-3.90625-14.144531 0l-81.007813 81.007812-60.917969-60.921874 6.617188-22.984376zm0 0"/></svg>