<?xml version="1.0" encoding="iso-8859-1"?>
<!-- Generator: Adobe Illustrator 16.0.0, SVG Export Plug-In . SVG Version: 6.00 Build 0)  -->
<!DOCTYPE svg PUBLIC "-//W3C//DTD SVG 1.1//EN" "http://www.w3.org/Graphics/SVG/1.1/DTD/svg11.dtd">
<svg version="1.1" id="Capa_1" xmlns="http://www.w3.org/2000/svg" xmlns:xlink="http://www.w3.org/1999/xlink" x="0px" y="0px"
	 width="620.906px" height="620.906px" viewBox="0 0 620.906 620.906" style="enable-background:new 0 0 620.906 620.906;"
	 xml:space="preserve">
<g>
	<g id="Shape_2_1_">
		<g>
			<path d="M437.453,0c-98.695,0-179,80.304-179,179c0,98.696,80.304,179,179,179c98.696,0,179-80.304,179-179
				C616.453,80.304,536.149,0,437.453,0z M437.453,335.625c-86.367,0-156.625-70.258-156.625-156.625
				c0-86.367,70.257-156.625,156.625-156.625S594.078,92.632,594.078,179C594.078,265.367,523.81,335.625,437.453,335.625z
				 M290.461,334.896c-4.374-4.373-11.445-4.373-15.819,0L132.248,477.281c-4.374,4.373-4.374,11.443,0,15.818
				c2.182,2.182,5.046,3.277,7.91,3.277c2.864,0,5.728-1.096,7.91-3.277l142.394-142.395
				C294.835,346.342,294.835,339.26,290.461,334.896z M440.765,397.156c-6.175,0-11.188,5.012-11.188,11.188v201.375
				c0,6.174,5.013,11.188,11.188,11.188c6.176,0,11.188-5.014,11.188-11.188V408.344
				C451.952,402.168,446.94,397.156,440.765,397.156z M361.3,381.74c-5.739-2.305-12.25,0.469-14.565,6.197l-75.281,186.775
				c-2.305,5.727,0.458,12.25,6.198,14.564c1.376,0.549,2.786,0.818,4.184,0.818c4.43,0,8.625-2.652,10.382-7.016l75.28-186.775
				C369.803,390.578,367.028,384.055,361.3,381.74z M243.026,262.57c-2.26-5.739-8.738-8.57-14.51-6.299l-187.334,73.85
				c-5.75,2.27-8.57,8.76-6.31,14.51c1.734,4.396,5.952,7.092,10.416,7.092c1.365,0,2.752-0.256,4.094-0.783l187.334-73.859
				C242.467,274.82,245.286,268.321,243.026,262.57z M228.203,184.593c0-6.175-5.012-11.188-11.188-11.188H15.641
				c-6.175,0-11.188,5.012-11.188,11.188c0,6.176,5.012,11.188,11.188,11.188h201.375
				C223.191,195.781,228.203,190.769,228.203,184.593z"/>
		</g>
	</g>
</g>
<g>
</g>
<g>
</g>
<g>
</g>
<g>
</g>
<g>
</g>
<g>
</g>
<g>
</g>
<g>
</g>
<g>
</g>
<g>
</g>
<g>
</g>
<g>
</g>
<g>
</g>
<g>
</g>
<g>
</g>
</svg>
